<mxfile host="app.diagrams.net" agent="Mozilla/5.0 (Windows NT 10.0; Win64; x64) AppleWebKit/537.36 (KHTML, like Gecko) Chrome/136.0.0.0 Safari/537.36 Edg/136.0.0.0" version="27.0.3">
  <diagram name="Page-1" id="hCXEOEVBIOULjqo8nCxj">
    <mxGraphModel dx="1309" dy="736" grid="1" gridSize="10" guides="1" tooltips="1" connect="1" arrows="1" fold="1" page="1" pageScale="1" pageWidth="850" pageHeight="1100" math="0" shadow="0">
      <root>
        <mxCell id="0" />
        <mxCell id="1" parent="0" />
        <mxCell id="e3jPu_WQSMWA2Jz03pjF-1" value="" style="ellipse;html=1;shape=startState;fillColor=#000000;strokeColor=#ff0000;" vertex="1" parent="1">
          <mxGeometry x="350" y="70" width="30" height="30" as="geometry" />
        </mxCell>
        <mxCell id="e3jPu_WQSMWA2Jz03pjF-2" value="" style="edgeStyle=orthogonalEdgeStyle;html=1;verticalAlign=bottom;endArrow=open;endSize=8;strokeColor=#ff0000;rounded=0;" edge="1" source="e3jPu_WQSMWA2Jz03pjF-1" parent="1">
          <mxGeometry relative="1" as="geometry">
            <mxPoint x="365" y="160" as="targetPoint" />
          </mxGeometry>
        </mxCell>
        <mxCell id="e3jPu_WQSMWA2Jz03pjF-3" value="Araç ekleme formunu aç" style="rounded=1;whiteSpace=wrap;html=1;arcSize=40;fontColor=#000000;fillColor=#ffffc0;strokeColor=#ff0000;" vertex="1" parent="1">
          <mxGeometry x="305" y="160" width="120" height="40" as="geometry" />
        </mxCell>
        <mxCell id="e3jPu_WQSMWA2Jz03pjF-4" value="" style="edgeStyle=orthogonalEdgeStyle;html=1;verticalAlign=bottom;endArrow=open;endSize=8;strokeColor=#ff0000;rounded=0;" edge="1" source="e3jPu_WQSMWA2Jz03pjF-3" parent="1" target="e3jPu_WQSMWA2Jz03pjF-5">
          <mxGeometry relative="1" as="geometry">
            <mxPoint x="365" y="260" as="targetPoint" />
          </mxGeometry>
        </mxCell>
        <mxCell id="e3jPu_WQSMWA2Jz03pjF-5" value="Formu doldur" style="rounded=1;whiteSpace=wrap;html=1;arcSize=40;fontColor=#000000;fillColor=#ffffc0;strokeColor=#ff0000;" vertex="1" parent="1">
          <mxGeometry x="305" y="260" width="120" height="40" as="geometry" />
        </mxCell>
        <mxCell id="e3jPu_WQSMWA2Jz03pjF-6" value="" style="edgeStyle=orthogonalEdgeStyle;html=1;verticalAlign=bottom;endArrow=open;endSize=8;strokeColor=#ff0000;rounded=0;" edge="1" source="e3jPu_WQSMWA2Jz03pjF-5" parent="1" target="e3jPu_WQSMWA2Jz03pjF-9">
          <mxGeometry relative="1" as="geometry">
            <mxPoint x="365" y="380" as="targetPoint" />
          </mxGeometry>
        </mxCell>
        <mxCell id="e3jPu_WQSMWA2Jz03pjF-9" value="Form geçerli mi?" style="rhombus;whiteSpace=wrap;html=1;fontColor=#000000;fillColor=#ffffc0;strokeColor=#ff0000;" vertex="1" parent="1">
          <mxGeometry x="297.5" y="390" width="135" height="90" as="geometry" />
        </mxCell>
        <mxCell id="e3jPu_WQSMWA2Jz03pjF-10" value="no" style="edgeStyle=orthogonalEdgeStyle;html=1;align=left;verticalAlign=bottom;endArrow=open;endSize=8;strokeColor=#ff0000;rounded=0;" edge="1" source="e3jPu_WQSMWA2Jz03pjF-9" parent="1" target="e3jPu_WQSMWA2Jz03pjF-12">
          <mxGeometry x="-1" relative="1" as="geometry">
            <mxPoint x="610" y="435" as="targetPoint" />
          </mxGeometry>
        </mxCell>
        <mxCell id="e3jPu_WQSMWA2Jz03pjF-11" value="yes" style="edgeStyle=orthogonalEdgeStyle;html=1;align=left;verticalAlign=top;endArrow=open;endSize=8;strokeColor=#ff0000;rounded=0;" edge="1" source="e3jPu_WQSMWA2Jz03pjF-9" parent="1" target="e3jPu_WQSMWA2Jz03pjF-14">
          <mxGeometry x="-1" relative="1" as="geometry">
            <mxPoint x="365" y="580" as="targetPoint" />
          </mxGeometry>
        </mxCell>
        <mxCell id="e3jPu_WQSMWA2Jz03pjF-12" value="Hata mesajı göster" style="rounded=1;whiteSpace=wrap;html=1;arcSize=40;fontColor=#000000;fillColor=#ffffc0;strokeColor=#ff0000;" vertex="1" parent="1">
          <mxGeometry x="550" y="415" width="120" height="40" as="geometry" />
        </mxCell>
        <mxCell id="e3jPu_WQSMWA2Jz03pjF-14" value="Araç bilgilerini veritabanına kaydet&amp;nbsp;" style="rounded=1;whiteSpace=wrap;html=1;arcSize=40;fontColor=#000000;fillColor=#ffffc0;strokeColor=#ff0000;" vertex="1" parent="1">
          <mxGeometry x="305" y="560" width="120" height="40" as="geometry" />
        </mxCell>
        <mxCell id="e3jPu_WQSMWA2Jz03pjF-15" value="" style="edgeStyle=orthogonalEdgeStyle;html=1;verticalAlign=bottom;endArrow=open;endSize=8;strokeColor=#ff0000;rounded=0;" edge="1" source="e3jPu_WQSMWA2Jz03pjF-14" parent="1">
          <mxGeometry relative="1" as="geometry">
            <mxPoint x="365" y="660" as="targetPoint" />
          </mxGeometry>
        </mxCell>
        <mxCell id="e3jPu_WQSMWA2Jz03pjF-16" value="" style="ellipse;html=1;shape=endState;fillColor=#000000;strokeColor=#ff0000;" vertex="1" parent="1">
          <mxGeometry x="350" y="660" width="30" height="30" as="geometry" />
        </mxCell>
        <mxCell id="e3jPu_WQSMWA2Jz03pjF-18" value="" style="edgeStyle=orthogonalEdgeStyle;html=1;verticalAlign=bottom;endArrow=open;endSize=8;strokeColor=#ff0000;rounded=0;" edge="1" source="e3jPu_WQSMWA2Jz03pjF-12" parent="1" target="e3jPu_WQSMWA2Jz03pjF-3">
          <mxGeometry relative="1" as="geometry">
            <mxPoint x="640" y="140" as="targetPoint" />
            <mxPoint x="630" y="320" as="sourcePoint" />
            <Array as="points">
              <mxPoint x="580" y="180" />
            </Array>
          </mxGeometry>
        </mxCell>
      </root>
    </mxGraphModel>
  </diagram>
</mxfile>
